<mxfile host="app.diagrams.net" modified="2023-06-06T09:59:13.399Z" agent="Mozilla/5.0 (X11; Ubuntu; Linux x86_64; rv:109.0) Gecko/20100101 Firefox/113.0" etag="a4IClDZAvg-lxZb_acvt" version="21.3.7" type="github">
  <diagram name="Page-1" id="nX15-fNpdfxrBtTrRgOM">
    <mxGraphModel dx="1509" dy="760" grid="1" gridSize="10" guides="1" tooltips="1" connect="1" arrows="1" fold="1" page="1" pageScale="1" pageWidth="850" pageHeight="1100" math="0" shadow="0">
      <root>
        <mxCell id="0" />
        <mxCell id="1" parent="0" />
        <mxCell id="7MaltWmzKwuHCb8BbpT4-1" value="&lt;font style=&quot;font-size: 30px;&quot;&gt;MLD Gas Station&lt;/font&gt;" style="text;html=1;strokeColor=none;fillColor=none;align=center;verticalAlign=middle;whiteSpace=wrap;rounded=0;" vertex="1" parent="1">
          <mxGeometry x="310" y="20" width="250" height="30" as="geometry" />
        </mxCell>
        <mxCell id="7MaltWmzKwuHCb8BbpT4-2" value="Point de Vente" style="swimlane;whiteSpace=wrap;html=1;" vertex="1" parent="1">
          <mxGeometry x="80" y="280" width="200" height="290" as="geometry" />
        </mxCell>
        <mxCell id="7MaltWmzKwuHCb8BbpT4-4" value="&lt;div align=&quot;left&quot;&gt;Latitude&lt;/div&gt;" style="text;html=1;align=left;verticalAlign=middle;resizable=0;points=[];autosize=1;strokeColor=none;fillColor=none;" vertex="1" parent="7MaltWmzKwuHCb8BbpT4-2">
          <mxGeometry x="11" y="60" width="70" height="30" as="geometry" />
        </mxCell>
        <mxCell id="7MaltWmzKwuHCb8BbpT4-5" value="Longitude" style="text;html=1;align=left;verticalAlign=middle;resizable=0;points=[];autosize=1;strokeColor=none;fillColor=none;" vertex="1" parent="7MaltWmzKwuHCb8BbpT4-2">
          <mxGeometry x="10" y="90" width="80" height="30" as="geometry" />
        </mxCell>
        <mxCell id="7MaltWmzKwuHCb8BbpT4-6" value="Postal_Code" style="text;html=1;align=left;verticalAlign=middle;resizable=0;points=[];autosize=1;strokeColor=none;fillColor=none;" vertex="1" parent="7MaltWmzKwuHCb8BbpT4-2">
          <mxGeometry x="11" y="120" width="90" height="30" as="geometry" />
        </mxCell>
        <mxCell id="7MaltWmzKwuHCb8BbpT4-7" value="Address" style="text;html=1;align=left;verticalAlign=middle;resizable=0;points=[];autosize=1;strokeColor=none;fillColor=none;" vertex="1" parent="7MaltWmzKwuHCb8BbpT4-2">
          <mxGeometry x="11" y="150" width="70" height="30" as="geometry" />
        </mxCell>
        <mxCell id="7MaltWmzKwuHCb8BbpT4-8" value="City" style="text;html=1;align=left;verticalAlign=middle;resizable=0;points=[];autosize=1;strokeColor=none;fillColor=none;" vertex="1" parent="7MaltWmzKwuHCb8BbpT4-2">
          <mxGeometry x="10" y="180" width="40" height="30" as="geometry" />
        </mxCell>
        <mxCell id="7MaltWmzKwuHCb8BbpT4-9" value="Automate 24/7" style="text;html=1;align=left;verticalAlign=middle;resizable=0;points=[];autosize=1;strokeColor=none;fillColor=none;" vertex="1" parent="7MaltWmzKwuHCb8BbpT4-2">
          <mxGeometry x="10" y="210" width="100" height="30" as="geometry" />
        </mxCell>
        <mxCell id="7MaltWmzKwuHCb8BbpT4-10" value="&lt;div&gt;Type = Autoroute / Route&lt;/div&gt;" style="text;html=1;align=left;verticalAlign=middle;resizable=0;points=[];autosize=1;strokeColor=none;fillColor=none;" vertex="1" parent="7MaltWmzKwuHCb8BbpT4-2">
          <mxGeometry x="10" y="240" width="160" height="30" as="geometry" />
        </mxCell>
        <mxCell id="7MaltWmzKwuHCb8BbpT4-3" value="&lt;div align=&quot;left&quot;&gt;Id&lt;/div&gt;" style="text;html=1;align=left;verticalAlign=middle;resizable=0;points=[];autosize=1;strokeColor=none;fillColor=none;" vertex="1" parent="7MaltWmzKwuHCb8BbpT4-2">
          <mxGeometry x="11" y="30" width="30" height="30" as="geometry" />
        </mxCell>
        <mxCell id="7MaltWmzKwuHCb8BbpT4-11" value="Horaires" style="swimlane;whiteSpace=wrap;html=1;" vertex="1" parent="1">
          <mxGeometry x="560" y="280" width="200" height="200" as="geometry" />
        </mxCell>
        <mxCell id="7MaltWmzKwuHCb8BbpT4-12" value="Jour" style="text;html=1;align=left;verticalAlign=middle;resizable=0;points=[];autosize=1;strokeColor=none;fillColor=none;" vertex="1" parent="7MaltWmzKwuHCb8BbpT4-11">
          <mxGeometry x="11" y="60" width="50" height="30" as="geometry" />
        </mxCell>
        <mxCell id="7MaltWmzKwuHCb8BbpT4-13" value="Horaire_ouverture" style="text;html=1;align=left;verticalAlign=middle;resizable=0;points=[];autosize=1;strokeColor=none;fillColor=none;" vertex="1" parent="7MaltWmzKwuHCb8BbpT4-11">
          <mxGeometry x="10" y="90" width="120" height="30" as="geometry" />
        </mxCell>
        <mxCell id="7MaltWmzKwuHCb8BbpT4-14" value="Horaire_fermeture" style="text;html=1;align=left;verticalAlign=middle;resizable=0;points=[];autosize=1;strokeColor=none;fillColor=none;" vertex="1" parent="7MaltWmzKwuHCb8BbpT4-11">
          <mxGeometry x="11" y="120" width="120" height="30" as="geometry" />
        </mxCell>
        <mxCell id="7MaltWmzKwuHCb8BbpT4-15" value="Ferme" style="text;html=1;align=left;verticalAlign=middle;resizable=0;points=[];autosize=1;strokeColor=none;fillColor=none;" vertex="1" parent="7MaltWmzKwuHCb8BbpT4-11">
          <mxGeometry x="11" y="150" width="60" height="30" as="geometry" />
        </mxCell>
        <mxCell id="7MaltWmzKwuHCb8BbpT4-35" value="Id" style="text;html=1;align=left;verticalAlign=middle;resizable=0;points=[];autosize=1;strokeColor=none;fillColor=none;" vertex="1" parent="7MaltWmzKwuHCb8BbpT4-11">
          <mxGeometry x="10" y="30" width="30" height="30" as="geometry" />
        </mxCell>
        <mxCell id="7MaltWmzKwuHCb8BbpT4-20" value="Période de Fermeture" style="swimlane;whiteSpace=wrap;html=1;" vertex="1" parent="1">
          <mxGeometry x="320" y="60" width="200" height="180" as="geometry" />
        </mxCell>
        <mxCell id="7MaltWmzKwuHCb8BbpT4-21" value="Début" style="text;html=1;align=left;verticalAlign=middle;resizable=0;points=[];autosize=1;strokeColor=none;fillColor=none;" vertex="1" parent="7MaltWmzKwuHCb8BbpT4-20">
          <mxGeometry x="11" y="60" width="60" height="30" as="geometry" />
        </mxCell>
        <mxCell id="7MaltWmzKwuHCb8BbpT4-22" value="Fin" style="text;html=1;align=left;verticalAlign=middle;resizable=0;points=[];autosize=1;strokeColor=none;fillColor=none;" vertex="1" parent="7MaltWmzKwuHCb8BbpT4-20">
          <mxGeometry x="10" y="90" width="40" height="30" as="geometry" />
        </mxCell>
        <mxCell id="7MaltWmzKwuHCb8BbpT4-23" value="Type (temp ou définitive)" style="text;html=1;align=left;verticalAlign=middle;resizable=0;points=[];autosize=1;strokeColor=none;fillColor=none;" vertex="1" parent="7MaltWmzKwuHCb8BbpT4-20">
          <mxGeometry x="11" y="120" width="150" height="30" as="geometry" />
        </mxCell>
        <mxCell id="7MaltWmzKwuHCb8BbpT4-28" value="&lt;div align=&quot;left&quot;&gt;Id&lt;/div&gt;" style="text;html=1;align=left;verticalAlign=middle;resizable=0;points=[];autosize=1;strokeColor=none;fillColor=none;" vertex="1" parent="7MaltWmzKwuHCb8BbpT4-20">
          <mxGeometry x="11" y="30" width="30" height="30" as="geometry" />
        </mxCell>
        <mxCell id="7MaltWmzKwuHCb8BbpT4-30" style="edgeStyle=orthogonalEdgeStyle;rounded=0;orthogonalLoop=1;jettySize=auto;html=1;exitX=1;exitY=0.5;exitDx=0;exitDy=0;entryX=0;entryY=0.25;entryDx=0;entryDy=0;" edge="1" parent="1" source="7MaltWmzKwuHCb8BbpT4-29" target="7MaltWmzKwuHCb8BbpT4-20">
          <mxGeometry relative="1" as="geometry" />
        </mxCell>
        <mxCell id="7MaltWmzKwuHCb8BbpT4-33" value="1,1" style="edgeLabel;html=1;align=center;verticalAlign=middle;resizable=0;points=[];" vertex="1" connectable="0" parent="7MaltWmzKwuHCb8BbpT4-30">
          <mxGeometry x="-0.2833" y="-2" relative="1" as="geometry">
            <mxPoint as="offset" />
          </mxGeometry>
        </mxCell>
        <mxCell id="7MaltWmzKwuHCb8BbpT4-31" style="edgeStyle=orthogonalEdgeStyle;rounded=0;orthogonalLoop=1;jettySize=auto;html=1;exitX=0;exitY=0.5;exitDx=0;exitDy=0;" edge="1" parent="1" source="7MaltWmzKwuHCb8BbpT4-29">
          <mxGeometry relative="1" as="geometry">
            <mxPoint x="80" y="320" as="targetPoint" />
            <Array as="points">
              <mxPoint x="40" y="90" />
              <mxPoint x="40" y="320" />
            </Array>
          </mxGeometry>
        </mxCell>
        <mxCell id="7MaltWmzKwuHCb8BbpT4-34" value="0,n" style="edgeLabel;html=1;align=center;verticalAlign=middle;resizable=0;points=[];" vertex="1" connectable="0" parent="7MaltWmzKwuHCb8BbpT4-31">
          <mxGeometry x="-0.32" y="2" relative="1" as="geometry">
            <mxPoint as="offset" />
          </mxGeometry>
        </mxCell>
        <mxCell id="7MaltWmzKwuHCb8BbpT4-29" value="Fermer" style="swimlane;whiteSpace=wrap;html=1;rounded=1;" vertex="1" parent="1">
          <mxGeometry x="120" y="60" width="80" height="60" as="geometry" />
        </mxCell>
        <mxCell id="7MaltWmzKwuHCb8BbpT4-36" value="Service" style="swimlane;whiteSpace=wrap;html=1;" vertex="1" parent="1">
          <mxGeometry x="560" y="520" width="120" height="80" as="geometry" />
        </mxCell>
        <mxCell id="7MaltWmzKwuHCb8BbpT4-41" value="Nom" style="text;html=1;align=left;verticalAlign=middle;resizable=0;points=[];autosize=1;strokeColor=none;fillColor=none;" vertex="1" parent="7MaltWmzKwuHCb8BbpT4-36">
          <mxGeometry x="10" y="30" width="50" height="30" as="geometry" />
        </mxCell>
        <mxCell id="7MaltWmzKwuHCb8BbpT4-46" style="edgeStyle=orthogonalEdgeStyle;rounded=0;orthogonalLoop=1;jettySize=auto;html=1;exitX=0;exitY=0.25;exitDx=0;exitDy=0;" edge="1" parent="1" source="7MaltWmzKwuHCb8BbpT4-42">
          <mxGeometry relative="1" as="geometry">
            <mxPoint x="280" y="350" as="targetPoint" />
          </mxGeometry>
        </mxCell>
        <mxCell id="7MaltWmzKwuHCb8BbpT4-67" value="0,n" style="edgeLabel;html=1;align=center;verticalAlign=middle;resizable=0;points=[];" vertex="1" connectable="0" parent="7MaltWmzKwuHCb8BbpT4-46">
          <mxGeometry x="-0.3701" y="1" relative="1" as="geometry">
            <mxPoint as="offset" />
          </mxGeometry>
        </mxCell>
        <mxCell id="7MaltWmzKwuHCb8BbpT4-47" style="edgeStyle=orthogonalEdgeStyle;rounded=0;orthogonalLoop=1;jettySize=auto;html=1;exitX=1;exitY=0.25;exitDx=0;exitDy=0;" edge="1" parent="1" source="7MaltWmzKwuHCb8BbpT4-42">
          <mxGeometry relative="1" as="geometry">
            <mxPoint x="560" y="320" as="targetPoint" />
          </mxGeometry>
        </mxCell>
        <mxCell id="7MaltWmzKwuHCb8BbpT4-68" value="1,1" style="edgeLabel;html=1;align=center;verticalAlign=middle;resizable=0;points=[];" vertex="1" connectable="0" parent="7MaltWmzKwuHCb8BbpT4-47">
          <mxGeometry x="-0.3483" y="-1" relative="1" as="geometry">
            <mxPoint as="offset" />
          </mxGeometry>
        </mxCell>
        <mxCell id="7MaltWmzKwuHCb8BbpT4-42" value="Ouvre" style="swimlane;whiteSpace=wrap;html=1;rounded=1;" vertex="1" parent="1">
          <mxGeometry x="380" y="320" width="80" height="60" as="geometry" />
        </mxCell>
        <mxCell id="7MaltWmzKwuHCb8BbpT4-44" style="edgeStyle=orthogonalEdgeStyle;rounded=0;orthogonalLoop=1;jettySize=auto;html=1;entryX=0;entryY=0.25;entryDx=0;entryDy=0;" edge="1" parent="1" source="7MaltWmzKwuHCb8BbpT4-43" target="7MaltWmzKwuHCb8BbpT4-36">
          <mxGeometry relative="1" as="geometry" />
        </mxCell>
        <mxCell id="7MaltWmzKwuHCb8BbpT4-70" value="0,n" style="edgeLabel;html=1;align=center;verticalAlign=middle;resizable=0;points=[];" vertex="1" connectable="0" parent="7MaltWmzKwuHCb8BbpT4-44">
          <mxGeometry x="-0.3598" y="-2" relative="1" as="geometry">
            <mxPoint as="offset" />
          </mxGeometry>
        </mxCell>
        <mxCell id="7MaltWmzKwuHCb8BbpT4-45" style="edgeStyle=orthogonalEdgeStyle;rounded=0;orthogonalLoop=1;jettySize=auto;html=1;exitX=0;exitY=0.5;exitDx=0;exitDy=0;entryX=1;entryY=0.25;entryDx=0;entryDy=0;" edge="1" parent="1" source="7MaltWmzKwuHCb8BbpT4-43" target="7MaltWmzKwuHCb8BbpT4-2">
          <mxGeometry relative="1" as="geometry" />
        </mxCell>
        <mxCell id="7MaltWmzKwuHCb8BbpT4-69" value="0,n" style="edgeLabel;html=1;align=center;verticalAlign=middle;resizable=0;points=[];" vertex="1" connectable="0" parent="7MaltWmzKwuHCb8BbpT4-45">
          <mxGeometry x="-0.7343" y="3" relative="1" as="geometry">
            <mxPoint as="offset" />
          </mxGeometry>
        </mxCell>
        <mxCell id="7MaltWmzKwuHCb8BbpT4-43" value="Dispose" style="swimlane;whiteSpace=wrap;html=1;rounded=1;" vertex="1" parent="1">
          <mxGeometry x="380" y="520" width="80" height="60" as="geometry" />
        </mxCell>
        <mxCell id="7MaltWmzKwuHCb8BbpT4-48" value="Carburant" style="swimlane;whiteSpace=wrap;html=1;" vertex="1" parent="1">
          <mxGeometry x="360" y="680" width="120" height="80" as="geometry" />
        </mxCell>
        <mxCell id="7MaltWmzKwuHCb8BbpT4-56" value="Nom" style="text;html=1;align=left;verticalAlign=middle;resizable=0;points=[];autosize=1;strokeColor=none;fillColor=none;" vertex="1" parent="7MaltWmzKwuHCb8BbpT4-48">
          <mxGeometry x="11" y="30" width="50" height="30" as="geometry" />
        </mxCell>
        <mxCell id="7MaltWmzKwuHCb8BbpT4-63" style="edgeStyle=orthogonalEdgeStyle;rounded=0;orthogonalLoop=1;jettySize=auto;html=1;entryX=0;entryY=0.5;entryDx=0;entryDy=0;" edge="1" parent="1" source="7MaltWmzKwuHCb8BbpT4-57" target="7MaltWmzKwuHCb8BbpT4-48">
          <mxGeometry relative="1" as="geometry">
            <Array as="points">
              <mxPoint x="320" y="675" />
              <mxPoint x="320" y="720" />
            </Array>
          </mxGeometry>
        </mxCell>
        <mxCell id="7MaltWmzKwuHCb8BbpT4-57" value="Prix" style="swimlane;whiteSpace=wrap;html=1;rounded=1;startSize=23;" vertex="1" parent="1">
          <mxGeometry x="160" y="630" width="80" height="90" as="geometry" />
        </mxCell>
        <mxCell id="7MaltWmzKwuHCb8BbpT4-62" value="Date" style="text;html=1;align=left;verticalAlign=middle;resizable=0;points=[];autosize=1;strokeColor=none;fillColor=none;" vertex="1" parent="7MaltWmzKwuHCb8BbpT4-57">
          <mxGeometry y="58" width="50" height="30" as="geometry" />
        </mxCell>
        <mxCell id="7MaltWmzKwuHCb8BbpT4-61" value="Valeur" style="text;html=1;align=left;verticalAlign=middle;resizable=0;points=[];autosize=1;strokeColor=none;fillColor=none;" vertex="1" parent="7MaltWmzKwuHCb8BbpT4-57">
          <mxGeometry x="1" y="28" width="60" height="30" as="geometry" />
        </mxCell>
        <mxCell id="7MaltWmzKwuHCb8BbpT4-64" style="edgeStyle=orthogonalEdgeStyle;rounded=0;orthogonalLoop=1;jettySize=auto;html=1;" edge="1" parent="1" source="7MaltWmzKwuHCb8BbpT4-58">
          <mxGeometry relative="1" as="geometry">
            <mxPoint x="360" y="720" as="targetPoint" />
            <Array as="points">
              <mxPoint x="320" y="800" />
              <mxPoint x="320" y="720" />
            </Array>
          </mxGeometry>
        </mxCell>
        <mxCell id="7MaltWmzKwuHCb8BbpT4-58" value="Rupture" style="swimlane;whiteSpace=wrap;html=1;rounded=1;" vertex="1" parent="1">
          <mxGeometry x="160" y="750" width="80" height="100" as="geometry" />
        </mxCell>
        <mxCell id="7MaltWmzKwuHCb8BbpT4-60" value="Fin" style="text;html=1;align=left;verticalAlign=middle;resizable=0;points=[];autosize=1;strokeColor=none;fillColor=none;" vertex="1" parent="7MaltWmzKwuHCb8BbpT4-58">
          <mxGeometry y="58" width="40" height="30" as="geometry" />
        </mxCell>
        <mxCell id="7MaltWmzKwuHCb8BbpT4-59" value="Début" style="text;html=1;align=left;verticalAlign=middle;resizable=0;points=[];autosize=1;strokeColor=none;fillColor=none;" vertex="1" parent="7MaltWmzKwuHCb8BbpT4-58">
          <mxGeometry x="1" y="28" width="60" height="30" as="geometry" />
        </mxCell>
        <mxCell id="7MaltWmzKwuHCb8BbpT4-66" style="edgeStyle=orthogonalEdgeStyle;rounded=0;orthogonalLoop=1;jettySize=auto;html=1;exitX=0.01;exitY=0.206;exitDx=0;exitDy=0;exitPerimeter=0;" edge="1" parent="1" source="7MaltWmzKwuHCb8BbpT4-58">
          <mxGeometry relative="1" as="geometry">
            <mxPoint x="80" y="320" as="targetPoint" />
            <mxPoint x="150" y="800" as="sourcePoint" />
            <Array as="points">
              <mxPoint x="40" y="771" />
              <mxPoint x="40" y="320" />
            </Array>
          </mxGeometry>
        </mxCell>
        <mxCell id="7MaltWmzKwuHCb8BbpT4-65" style="edgeStyle=orthogonalEdgeStyle;rounded=0;orthogonalLoop=1;jettySize=auto;html=1;exitX=-0.005;exitY=0.184;exitDx=0;exitDy=0;exitPerimeter=0;" edge="1" parent="1" source="7MaltWmzKwuHCb8BbpT4-57">
          <mxGeometry relative="1" as="geometry">
            <mxPoint x="80" y="320" as="targetPoint" />
            <Array as="points">
              <mxPoint x="40" y="647" />
              <mxPoint x="40" y="320" />
            </Array>
          </mxGeometry>
        </mxCell>
      </root>
    </mxGraphModel>
  </diagram>
</mxfile>
